<svg width="79" height="20" viewBox="0 0 79 20" fill="none" xmlns="http://www.w3.org/2000/svg">
<path d="M9.92 2.44C9.92 1.88 10.1 1.46 10.46 1.18C10.82 0.886666 11.2333 0.739999 11.7 0.739999C11.9267 0.739999 12.1467 0.779999 12.36 0.859999C12.5733 0.926666 12.7667 1.03333 12.94 1.18C13.1133 1.32667 13.2467 1.50667 13.34 1.72C13.4467 1.92 13.5 2.16 13.5 2.44V8.08H14.56V2.44C14.56 1.88 14.74 1.46 15.1 1.18C15.46 0.886666 15.8733 0.739999 16.34 0.739999C16.5667 0.739999 16.7867 0.779999 17 0.859999C17.2133 0.926666 17.4067 1.03333 17.58 1.18C17.7533 1.32667 17.8867 1.50667 17.98 1.72C18.0867 1.92 18.14 2.16 18.14 2.44V19.52H14.56V11.36H13.5V19.52H9.92V2.44ZM3.06 18.62C2.46 18.62 1.96667 18.5667 1.58 18.46C1.19333 18.3667 0.893333 18.2067 0.68 17.98C0.466667 17.7533 0.32 17.4467 0.24 17.06C0.16 16.6733 0.12 16.1933 0.12 15.62V3.36C0.12 2.68 0.3 2.18667 0.66 1.88C1.03333 1.57333 1.5 1.42 2.06 1.42C2.62 1.42 3.07333 1.57333 3.42 1.88C3.76667 2.18667 3.94 2.68 3.94 3.36V14.76C3.94 14.9867 3.97333 15.1333 4.04 15.2C4.12 15.2533 4.27333 15.28 4.5 15.28H7.48C7.8 15.28 8.06667 15.3267 8.28 15.42C8.50667 15.5133 8.68667 15.64 8.82 15.8C8.95333 15.96 9.04667 16.14 9.1 16.34C9.15333 16.54 9.18 16.7467 9.18 16.96C9.18 17.1733 9.14667 17.38 9.08 17.58C9.02667 17.78 8.93333 17.9533 8.8 18.1C8.68 18.26 8.50667 18.3867 8.28 18.48C8.06667 18.5733 7.8 18.62 7.48 18.62H3.06ZM25.12 4.06C24.92 4.06 24.78 4.09333 24.7 4.16C24.62 4.21333 24.58 4.33333 24.58 4.52V5.1C24.58 5.3 24.62 5.43333 24.7 5.5C24.78 5.55333 24.92 5.58 25.12 5.58H36.06C36.6067 5.58 36.9933 5.74 37.22 6.06C37.46 6.38 37.58 6.72667 37.58 7.1C37.58 7.47333 37.46 7.81333 37.22 8.12C36.9933 8.41333 36.6067 8.56 36.06 8.56H31.02V9.76H36.8C37.08 9.76 37.32 9.80667 37.52 9.9C37.72 9.99333 37.88 10.12 38 10.28C38.1333 10.4267 38.2267 10.5933 38.28 10.78C38.3333 10.9667 38.36 11.1533 38.36 11.34C38.36 11.5267 38.3267 11.7133 38.26 11.9C38.2067 12.0867 38.12 12.2533 38 12.4C37.88 12.5467 37.72 12.6667 37.52 12.76C37.32 12.8533 37.08 12.9 36.8 12.9H21.2C20.92 12.9 20.68 12.8533 20.48 12.76C20.28 12.6667 20.12 12.5467 20 12.4C19.88 12.2533 19.7867 12.0867 19.72 11.9C19.6667 11.7133 19.64 11.5267 19.64 11.34C19.64 11.1533 19.6667 10.9667 19.72 10.78C19.7733 10.5933 19.86 10.4267 19.98 10.28C20.1133 10.12 20.28 9.99333 20.48 9.9C20.68 9.80667 20.92 9.76 21.2 9.76H26.98V8.56H23.3C22.7267 8.56 22.2533 8.52 21.88 8.44C21.52 8.36 21.2333 8.22 21.02 8.02C20.8067 7.80667 20.66 7.52667 20.58 7.18C20.5 6.82 20.46 6.36667 20.46 5.82V3.8C20.46 3.25333 20.5 2.8 20.58 2.44C20.66 2.08 20.8067 1.8 21.02 1.6C21.2333 1.38667 21.52 1.24 21.88 1.16C22.2533 1.06667 22.7267 1.02 23.3 1.02H36C36.28 1.02 36.5133 1.06667 36.7 1.16C36.9 1.24 37.06 1.35333 37.18 1.5C37.3 1.64667 37.3867 1.81333 37.44 2C37.4933 2.17333 37.52 2.35333 37.52 2.54C37.52 2.92667 37.4 3.28 37.16 3.6C36.9333 3.90667 36.5467 4.06 36 4.06H25.12ZM23.5 19.52C22.94 19.52 22.4733 19.4667 22.1 19.36C21.7267 19.2667 21.4333 19.1067 21.22 18.88C21.0067 18.6533 20.8533 18.36 20.76 18C20.68 17.6267 20.64 17.1667 20.64 16.62V15.4C20.64 14.72 20.8467 14.2267 21.26 13.92C21.6733 13.6133 22.16 13.46 22.72 13.46C23.28 13.46 23.7533 13.6133 24.14 13.92C24.54 14.2267 24.74 14.72 24.74 15.4V16.02C24.74 16.2467 24.7733 16.3733 24.84 16.4C24.9067 16.4133 25.0533 16.42 25.28 16.42H36.06C36.6733 16.42 37.1067 16.58 37.36 16.9C37.6133 17.2067 37.74 17.56 37.74 17.96C37.74 18.3733 37.6067 18.7333 37.34 19.04C37.0867 19.36 36.66 19.52 36.06 19.52H23.5ZM49.92 2.44C49.92 1.88 50.1 1.46 50.46 1.18C50.82 0.886666 51.2333 0.739999 51.7 0.739999C51.9267 0.739999 52.1467 0.779999 52.36 0.859999C52.5733 0.926666 52.7667 1.03333 52.94 1.18C53.1133 1.32667 53.2467 1.50667 53.34 1.72C53.4467 1.92 53.5 2.16 53.5 2.44V8.08H54.56V2.44C54.56 1.88 54.74 1.46 55.1 1.18C55.46 0.886666 55.8733 0.739999 56.34 0.739999C56.5667 0.739999 56.7867 0.779999 57 0.859999C57.2133 0.926666 57.4067 1.03333 57.58 1.18C57.7533 1.32667 57.8867 1.50667 57.98 1.72C58.0867 1.92 58.14 2.16 58.14 2.44V19.52H54.56V11.36H53.5V19.52H49.92V2.44ZM43.06 18.62C42.46 18.62 41.9667 18.5667 41.58 18.46C41.1933 18.3667 40.8933 18.2067 40.68 17.98C40.4667 17.7533 40.32 17.4467 40.24 17.06C40.16 16.6733 40.12 16.1933 40.12 15.62V3.36C40.12 2.68 40.3 2.18667 40.66 1.88C41.0333 1.57333 41.5 1.42 42.06 1.42C42.62 1.42 43.0733 1.57333 43.42 1.88C43.7667 2.18667 43.94 2.68 43.94 3.36V14.76C43.94 14.9867 43.9733 15.1333 44.04 15.2C44.12 15.2533 44.2733 15.28 44.5 15.28H47.48C47.8 15.28 48.0667 15.3267 48.28 15.42C48.5067 15.5133 48.6867 15.64 48.82 15.8C48.9533 15.96 49.0467 16.14 49.1 16.34C49.1533 16.54 49.18 16.7467 49.18 16.96C49.18 17.1733 49.1467 17.38 49.08 17.58C49.0267 17.78 48.9333 17.9533 48.8 18.1C48.68 18.26 48.5067 18.3867 48.28 18.48C48.0667 18.5733 47.8 18.62 47.48 18.62H43.06ZM61.08 6.06C61.48 5.91333 61.8133 5.72 62.08 5.48C62.36 5.22667 62.58 4.94 62.74 4.62C62.9 4.3 63.0133 3.94667 63.08 3.56C63.1467 3.16 63.1867 2.74 63.2 2.3C63.2133 1.68667 63.4133 1.24667 63.8 0.98C64.2 0.713333 64.6533 0.586666 65.16 0.599999C65.6667 0.613333 66.1 0.759999 66.46 1.04C66.82 1.32 67 1.76 67 2.36C67 2.54667 66.9933 2.73333 66.98 2.92C66.9667 3.10667 66.9467 3.28667 66.92 3.46C67.5867 3.52667 68.1667 3.7 68.66 3.98C69.1667 4.24667 69.5867 4.64 69.92 5.16C70.4267 4.49333 70.6867 3.54 70.7 2.3C70.7133 1.68667 70.9133 1.24667 71.3 0.98C71.7 0.713333 72.1533 0.586666 72.66 0.599999C73.1667 0.613333 73.6 0.759999 73.96 1.04C74.32 1.32 74.5 1.76 74.5 2.36C74.5 2.57333 74.4867 2.78667 74.46 3C74.4467 3.2 74.4267 3.39333 74.4 3.58C75.5333 3.80667 76.4267 4.36 77.08 5.24C77.7467 6.10667 78.0533 7.33333 78 8.92H74.4C74.4933 8.28 74.4467 7.74 74.26 7.3C74.0867 6.84667 73.7867 6.52667 73.36 6.34C72.8267 7.20667 72.1667 7.89333 71.38 8.4C70.5933 8.89333 69.7933 9.15333 68.98 9.18C68.4733 9.19333 68.06 9.1 67.74 8.9C67.42 8.68667 67.2267 8.40667 67.16 8.06C67.1333 7.94 67.1133 7.82667 67.1 7.72C67.1 7.6 67.1133 7.48667 67.14 7.38C67.0067 6.72667 66.6533 6.32 66.08 6.16C65.6133 7 65.02 7.67333 64.3 8.18C63.58 8.67333 62.7933 8.97333 61.94 9.08C61.4333 9.14667 61.0067 9.07333 60.66 8.86C60.3133 8.63333 60.1 8.32667 60.02 7.94C59.9267 7.5 59.9733 7.11333 60.16 6.78C60.36 6.44667 60.6667 6.20667 61.08 6.06ZM63.5 19.52C62.94 19.52 62.4733 19.4667 62.1 19.36C61.7267 19.2667 61.4333 19.1067 61.22 18.88C61.0067 18.6533 60.8533 18.36 60.76 18C60.68 17.6267 60.64 17.1667 60.64 16.62V15.5C60.64 14.82 60.8467 14.34 61.26 14.06C61.6733 13.7667 62.16 13.62 62.72 13.62C63.28 13.62 63.7533 13.7667 64.14 14.06C64.54 14.3533 64.74 14.8333 64.74 15.5V16.06C64.74 16.2333 64.7667 16.3467 64.82 16.4C64.8733 16.44 64.9933 16.46 65.18 16.46H76.06C76.6733 16.46 77.1067 16.6133 77.36 16.92C77.6133 17.2267 77.74 17.58 77.74 17.98C77.74 18.3933 77.6067 18.7533 77.34 19.06C77.0867 19.3667 76.66 19.52 76.06 19.52H63.5ZM76.8 9.86C77.08 9.86 77.32 9.90667 77.52 10C77.72 10.0933 77.88 10.22 78 10.38C78.1333 10.5267 78.2267 10.6933 78.28 10.88C78.3333 11.0667 78.36 11.2533 78.36 11.44C78.36 11.6267 78.3267 11.82 78.26 12.02C78.2067 12.2067 78.12 12.3733 78 12.52C77.88 12.6667 77.72 12.7867 77.52 12.88C77.32 12.9733 77.08 13.02 76.8 13.02H61.2C60.92 13.02 60.68 12.9733 60.48 12.88C60.28 12.7867 60.12 12.6667 60 12.52C59.88 12.3733 59.7867 12.2067 59.72 12.02C59.6667 11.82 59.64 11.6267 59.64 11.44C59.64 11.2533 59.6667 11.0667 59.72 10.88C59.7733 10.6933 59.86 10.5267 59.98 10.38C60.1133 10.22 60.28 10.0933 60.48 10C60.68 9.90667 60.92 9.86 61.2 9.86H76.8Z" fill="#864AF9"/>
</svg>
