<svg width="95" height="23" viewBox="0 0 95 23" fill="none" xmlns="http://www.w3.org/2000/svg">
<path d="M12.104 2.328C12.104 1.656 12.32 1.152 12.752 0.816C13.184 0.463999 13.68 0.287999 14.24 0.287999C14.512 0.287999 14.776 0.335999 15.032 0.431999C15.288 0.511999 15.52 0.639999 15.728 0.816C15.936 0.991999 16.096 1.208 16.208 1.464C16.336 1.704 16.4 1.992 16.4 2.328V9.096H17.672V2.328C17.672 1.656 17.888 1.152 18.32 0.816C18.752 0.463999 19.248 0.287999 19.808 0.287999C20.08 0.287999 20.344 0.335999 20.6 0.431999C20.856 0.511999 21.088 0.639999 21.296 0.816C21.504 0.991999 21.664 1.208 21.776 1.464C21.904 1.704 21.968 1.992 21.968 2.328V22.824H17.672V13.032H16.4V22.824H12.104V2.328ZM3.872 21.744C3.152 21.744 2.56 21.68 2.096 21.552C1.632 21.44 1.272 21.248 1.016 20.976C0.76 20.704 0.584 20.336 0.488 19.872C0.392 19.408 0.344 18.832 0.344 18.144V3.432C0.344 2.616 0.56 2.024 0.992 1.656C1.44 1.288 2 1.104 2.672 1.104C3.344 1.104 3.888 1.288 4.304 1.656C4.72 2.024 4.928 2.616 4.928 3.432V17.112C4.928 17.384 4.968 17.56 5.048 17.64C5.144 17.704 5.328 17.736 5.6 17.736H9.176C9.56 17.736 9.88 17.792 10.136 17.904C10.408 18.016 10.624 18.168 10.784 18.36C10.944 18.552 11.056 18.768 11.12 19.008C11.184 19.248 11.216 19.496 11.216 19.752C11.216 20.008 11.176 20.256 11.096 20.496C11.032 20.736 10.92 20.944 10.76 21.12C10.616 21.312 10.408 21.464 10.136 21.576C9.88 21.688 9.56 21.744 9.176 21.744H3.872ZM30.344 4.272C30.104 4.272 29.936 4.312 29.84 4.392C29.744 4.456 29.696 4.6 29.696 4.824V5.52C29.696 5.76 29.744 5.92 29.84 6C29.936 6.064 30.104 6.096 30.344 6.096H43.472C44.128 6.096 44.592 6.288 44.864 6.672C45.152 7.056 45.296 7.472 45.296 7.92C45.296 8.368 45.152 8.776 44.864 9.144C44.592 9.496 44.128 9.672 43.472 9.672H37.424V11.112H44.36C44.696 11.112 44.984 11.168 45.224 11.28C45.464 11.392 45.656 11.544 45.8 11.736C45.96 11.912 46.072 12.112 46.136 12.336C46.2 12.56 46.232 12.784 46.232 13.008C46.232 13.232 46.192 13.456 46.112 13.68C46.048 13.904 45.944 14.104 45.8 14.28C45.656 14.456 45.464 14.6 45.224 14.712C44.984 14.824 44.696 14.88 44.36 14.88H25.64C25.304 14.88 25.016 14.824 24.776 14.712C24.536 14.6 24.344 14.456 24.2 14.28C24.056 14.104 23.944 13.904 23.864 13.68C23.8 13.456 23.768 13.232 23.768 13.008C23.768 12.784 23.8 12.56 23.864 12.336C23.928 12.112 24.032 11.912 24.176 11.736C24.336 11.544 24.536 11.392 24.776 11.28C25.016 11.168 25.304 11.112 25.64 11.112H32.576V9.672H28.16C27.472 9.672 26.904 9.624 26.456 9.528C26.024 9.432 25.68 9.264 25.424 9.024C25.168 8.768 24.992 8.432 24.896 8.016C24.8 7.584 24.752 7.04 24.752 6.384V3.96C24.752 3.304 24.8 2.76 24.896 2.328C24.992 1.896 25.168 1.56 25.424 1.32C25.68 1.064 26.024 0.887999 26.456 0.791998C26.904 0.679999 27.472 0.623999 28.16 0.623999H43.4C43.736 0.623999 44.016 0.679999 44.24 0.791998C44.48 0.887999 44.672 1.024 44.816 1.2C44.96 1.376 45.064 1.576 45.128 1.8C45.192 2.008 45.224 2.224 45.224 2.448C45.224 2.912 45.08 3.336 44.792 3.72C44.52 4.088 44.056 4.272 43.4 4.272H30.344ZM28.4 22.824C27.728 22.824 27.168 22.76 26.72 22.632C26.272 22.52 25.92 22.328 25.664 22.056C25.408 21.784 25.224 21.432 25.112 21C25.016 20.552 24.968 20 24.968 19.344V17.88C24.968 17.064 25.216 16.472 25.712 16.104C26.208 15.736 26.792 15.552 27.464 15.552C28.136 15.552 28.704 15.736 29.168 16.104C29.648 16.472 29.888 17.064 29.888 17.88V18.624C29.888 18.896 29.928 19.048 30.008 19.08C30.088 19.096 30.264 19.104 30.536 19.104H43.472C44.208 19.104 44.728 19.296 45.032 19.68C45.336 20.048 45.488 20.472 45.488 20.952C45.488 21.448 45.328 21.88 45.008 22.248C44.704 22.632 44.192 22.824 43.472 22.824H28.4ZM60.104 2.328C60.104 1.656 60.32 1.152 60.752 0.816C61.184 0.463999 61.68 0.287999 62.24 0.287999C62.512 0.287999 62.776 0.335999 63.032 0.431999C63.288 0.511999 63.52 0.639999 63.728 0.816C63.936 0.991999 64.096 1.208 64.208 1.464C64.336 1.704 64.4 1.992 64.4 2.328V9.096H65.672V2.328C65.672 1.656 65.888 1.152 66.32 0.816C66.752 0.463999 67.248 0.287999 67.808 0.287999C68.08 0.287999 68.344 0.335999 68.6 0.431999C68.856 0.511999 69.088 0.639999 69.296 0.816C69.504 0.991999 69.664 1.208 69.776 1.464C69.904 1.704 69.968 1.992 69.968 2.328V22.824H65.672V13.032H64.4V22.824H60.104V2.328ZM51.872 21.744C51.152 21.744 50.56 21.68 50.096 21.552C49.632 21.44 49.272 21.248 49.016 20.976C48.76 20.704 48.584 20.336 48.488 19.872C48.392 19.408 48.344 18.832 48.344 18.144V3.432C48.344 2.616 48.56 2.024 48.992 1.656C49.44 1.288 50 1.104 50.672 1.104C51.344 1.104 51.888 1.288 52.304 1.656C52.72 2.024 52.928 2.616 52.928 3.432V17.112C52.928 17.384 52.968 17.56 53.048 17.64C53.144 17.704 53.328 17.736 53.6 17.736H57.176C57.56 17.736 57.88 17.792 58.136 17.904C58.408 18.016 58.624 18.168 58.784 18.36C58.944 18.552 59.056 18.768 59.12 19.008C59.184 19.248 59.216 19.496 59.216 19.752C59.216 20.008 59.176 20.256 59.096 20.496C59.032 20.736 58.92 20.944 58.76 21.12C58.616 21.312 58.408 21.464 58.136 21.576C57.88 21.688 57.56 21.744 57.176 21.744H51.872ZM73.496 6.672C73.976 6.496 74.376 6.264 74.696 5.976C75.032 5.672 75.296 5.328 75.488 4.944C75.68 4.56 75.816 4.136 75.896 3.672C75.976 3.192 76.024 2.688 76.04 2.16C76.056 1.424 76.296 0.895999 76.76 0.576C77.24 0.255999 77.784 0.103999 78.392 0.119998C79 0.135999 79.52 0.311999 79.952 0.647999C80.384 0.983999 80.6 1.512 80.6 2.232C80.6 2.456 80.592 2.68 80.576 2.904C80.56 3.128 80.536 3.344 80.504 3.552C81.304 3.632 82 3.84 82.592 4.176C83.2 4.496 83.704 4.968 84.104 5.592C84.712 4.792 85.024 3.648 85.04 2.16C85.056 1.424 85.296 0.895999 85.76 0.576C86.24 0.255999 86.784 0.103999 87.392 0.119998C88 0.135999 88.52 0.311999 88.952 0.647999C89.384 0.983999 89.6 1.512 89.6 2.232C89.6 2.488 89.584 2.744 89.552 3C89.536 3.24 89.512 3.472 89.48 3.696C90.84 3.968 91.912 4.632 92.696 5.688C93.496 6.728 93.864 8.2 93.8 10.104H89.48C89.592 9.336 89.536 8.688 89.312 8.16C89.104 7.616 88.744 7.232 88.232 7.008C87.592 8.048 86.8 8.872 85.856 9.48C84.912 10.072 83.952 10.384 82.976 10.416C82.368 10.432 81.872 10.32 81.488 10.08C81.104 9.824 80.872 9.488 80.792 9.072C80.76 8.928 80.736 8.792 80.72 8.664C80.72 8.52 80.736 8.384 80.768 8.256C80.608 7.472 80.184 6.984 79.496 6.792C78.936 7.8 78.224 8.608 77.36 9.216C76.496 9.808 75.552 10.168 74.528 10.296C73.92 10.376 73.408 10.288 72.992 10.032C72.576 9.76 72.32 9.392 72.224 8.928C72.112 8.4 72.168 7.936 72.392 7.536C72.632 7.136 73 6.848 73.496 6.672ZM76.4 22.824C75.728 22.824 75.168 22.76 74.72 22.632C74.272 22.52 73.92 22.328 73.664 22.056C73.408 21.784 73.224 21.432 73.112 21C73.016 20.552 72.968 20 72.968 19.344V18C72.968 17.184 73.216 16.608 73.712 16.272C74.208 15.92 74.792 15.744 75.464 15.744C76.136 15.744 76.704 15.92 77.168 16.272C77.648 16.624 77.888 17.2 77.888 18V18.672C77.888 18.88 77.92 19.016 77.984 19.08C78.048 19.128 78.192 19.152 78.416 19.152H91.472C92.208 19.152 92.728 19.336 93.032 19.704C93.336 20.072 93.488 20.496 93.488 20.976C93.488 21.472 93.328 21.904 93.008 22.272C92.704 22.64 92.192 22.824 91.472 22.824H76.4ZM92.36 11.232C92.696 11.232 92.984 11.288 93.224 11.4C93.464 11.512 93.656 11.664 93.8 11.856C93.96 12.032 94.072 12.232 94.136 12.456C94.2 12.68 94.232 12.904 94.232 13.128C94.232 13.352 94.192 13.584 94.112 13.824C94.048 14.048 93.944 14.248 93.8 14.424C93.656 14.6 93.464 14.744 93.224 14.856C92.984 14.968 92.696 15.024 92.36 15.024H73.64C73.304 15.024 73.016 14.968 72.776 14.856C72.536 14.744 72.344 14.6 72.2 14.424C72.056 14.248 71.944 14.048 71.864 13.824C71.8 13.584 71.768 13.352 71.768 13.128C71.768 12.904 71.8 12.68 71.864 12.456C71.928 12.232 72.032 12.032 72.176 11.856C72.336 11.664 72.536 11.512 72.776 11.4C73.016 11.288 73.304 11.232 73.64 11.232H92.36Z" fill="#864AF9"/>
</svg>
